<svg width="299" height="295" viewBox="0 0 299 295" fill="none" xmlns="http://www.w3.org/2000/svg">
<rect width="299" height="295" fill="white"/>
<path d="M35.966 247.156C38.527 247.156 40.282 245.232 40.282 242.671C40.282 240.11 38.527 238.186 35.966 238.186C33.405 238.186 31.663 240.11 31.663 242.671C31.663 245.232 33.405 247.156 35.966 247.156ZM35.966 246.194C34.016 246.194 32.781 244.686 32.781 242.671C32.781 240.643 34.016 239.148 35.966 239.148C37.903 239.148 39.164 240.643 39.164 242.671C39.164 244.686 37.903 246.194 35.966 246.194ZM46.8684 247V240.721H45.8934V245.336C45.5294 245.843 44.8014 246.285 44.0474 246.285C43.1894 246.285 42.6304 245.96 42.6304 244.855V240.721H41.6554V245.154C41.6554 246.506 42.3444 247.156 43.6574 247.156C44.5934 247.156 45.4124 246.662 45.8934 246.116V247H46.8684ZM49.5306 247V242.554C49.8166 242.047 50.6356 241.553 51.2466 241.553C51.3896 241.553 51.5066 241.566 51.6236 241.579V240.578C50.7656 240.578 50.0376 241.072 49.5306 241.722V240.721H48.5556V247H49.5306ZM60.9039 247V242.593C60.9039 241.228 60.2149 240.565 58.9149 240.565C57.9659 240.565 57.1079 241.098 56.6659 241.631V240.721H55.6909V247H56.6659V242.411C57.0429 241.904 57.7579 241.436 58.5249 241.436C59.3699 241.436 59.9419 241.774 59.9419 242.892V247H60.9039ZM65.4507 247.156C66.4647 247.156 67.3097 246.805 67.9467 246.181L67.4787 245.544C66.9717 246.064 66.2567 246.35 65.5287 246.35C64.1767 246.35 63.3577 245.362 63.2797 244.179H68.3497V243.932C68.3497 242.047 67.2317 240.565 65.3337 240.565C63.5397 240.565 62.2397 242.034 62.2397 243.854C62.2397 245.817 63.5787 247.156 65.4507 247.156ZM67.3877 243.451H63.2667C63.3187 242.502 63.9817 241.371 65.3207 241.371C66.7507 241.371 67.3747 242.528 67.3877 243.451ZM76.0909 247L78.0929 240.721H77.0659L75.5319 245.726L73.8939 240.721H73.0489L71.3979 245.726L69.8639 240.721H68.8499L70.8519 247H71.8269L73.4649 241.956L75.1029 247H76.0909ZM87.273 247V242.593C87.273 241.228 86.584 240.565 85.284 240.565C84.335 240.565 83.477 241.098 83.035 241.631V240.721H82.06V247H83.035V242.411C83.412 241.904 84.127 241.436 84.894 241.436C85.739 241.436 86.311 241.774 86.311 242.892V247H87.273ZM91.8199 247.156C92.8339 247.156 93.6789 246.805 94.3159 246.181L93.8479 245.544C93.3409 246.064 92.6259 246.35 91.8979 246.35C90.5459 246.35 89.7269 245.362 89.6489 244.179H94.7189V243.932C94.7189 242.047 93.6009 240.565 91.7029 240.565C89.9089 240.565 88.6089 242.034 88.6089 243.854C88.6089 245.817 89.9479 247.156 91.8199 247.156ZM93.7569 243.451H89.6359C89.6879 242.502 90.3509 241.371 91.6899 241.371C93.1199 241.371 93.7439 242.528 93.7569 243.451ZM98.0401 247.156C99.6521 247.156 100.497 246.311 100.497 245.258C100.497 242.814 96.6101 243.711 96.6101 242.346C96.6101 241.787 97.1431 241.358 98.0011 241.358C98.8201 241.358 99.4961 241.696 99.8731 242.151L100.328 241.475C99.8341 240.968 99.0801 240.565 98.0011 240.565C96.5061 240.565 95.6741 241.384 95.6741 242.372C95.6741 244.699 99.5611 243.763 99.5611 245.284C99.5611 245.908 99.0281 246.363 98.0661 246.363C97.2081 246.363 96.4151 245.947 95.9991 245.466L95.5051 246.168C96.1421 246.831 97.0001 247.156 98.0401 247.156ZM103.42 247.156C103.979 247.156 104.33 246.987 104.577 246.753L104.291 246.012C104.161 246.155 103.914 246.285 103.628 246.285C103.212 246.285 103.004 245.947 103.004 245.479V241.579H104.278V240.721H103.004V239.005H102.016V240.721H100.976V241.579H102.016V245.687C102.016 246.623 102.484 247.156 103.42 247.156ZM105.902 247.13C106.292 247.13 106.617 246.805 106.617 246.415C106.617 246.025 106.292 245.7 105.902 245.7C105.512 245.7 105.187 246.025 105.187 246.415C105.187 246.805 105.512 247.13 105.902 247.13Z" fill="#999999"/>
<path d="M118.201 247V242.567C118.201 241.202 117.512 240.565 116.199 240.565C115.25 240.565 114.392 241.098 113.963 241.631V238.329H112.988V247H113.963V242.411C114.327 241.904 115.055 241.436 115.809 241.436C116.667 241.436 117.226 241.748 117.226 242.866V247H118.201ZM121.747 247.156C122.306 247.156 122.657 246.987 122.904 246.753L122.618 246.012C122.488 246.155 122.241 246.285 121.955 246.285C121.539 246.285 121.331 245.947 121.331 245.479V241.579H122.605V240.721H121.331V239.005H120.343V240.721H119.303V241.579H120.343V245.687C120.343 246.623 120.811 247.156 121.747 247.156ZM125.568 247.156C126.127 247.156 126.478 246.987 126.725 246.753L126.439 246.012C126.309 246.155 126.062 246.285 125.776 246.285C125.36 246.285 125.152 245.947 125.152 245.479V241.579H126.426V240.721H125.152V239.005H124.164V240.721H123.124V241.579H124.164V245.687C124.164 246.623 124.632 247.156 125.568 247.156ZM130.884 247.156C132.535 247.156 133.679 245.882 133.679 243.854C133.679 241.813 132.535 240.565 130.884 240.565C130 240.565 129.22 241.02 128.765 241.657V240.721H127.79V249.392H128.765V246.051C129.285 246.74 130.026 247.156 130.884 247.156ZM130.637 246.285C129.87 246.285 129.103 245.817 128.765 245.271V242.437C129.103 241.891 129.87 241.436 130.637 241.436C131.898 241.436 132.652 242.463 132.652 243.854C132.652 245.245 131.898 246.285 130.637 246.285ZM135.75 242.06C136.14 242.06 136.465 241.722 136.465 241.345C136.465 240.955 136.14 240.63 135.75 240.63C135.36 240.63 135.035 240.955 135.035 241.345C135.035 241.722 135.36 242.06 135.75 242.06ZM135.75 247.13C136.14 247.13 136.465 246.805 136.465 246.415C136.465 246.025 136.14 245.7 135.75 245.7C135.36 245.7 135.035 246.025 135.035 246.415C135.035 246.805 135.36 247.13 135.75 247.13ZM137.942 247.26L141.023 238.069H140.256L137.175 247.26H137.942ZM141.788 247.26L144.869 238.069H144.102L141.021 247.26H141.788ZM147.442 247.156C148.001 247.156 148.352 246.987 148.599 246.753L148.313 246.012C148.183 246.155 147.936 246.285 147.65 246.285C147.234 246.285 147.026 245.947 147.026 245.479V241.579H148.3V240.721H147.026V239.005H146.038V240.721H144.998V241.579H146.038V245.687C146.038 246.623 146.506 247.156 147.442 247.156ZM152.511 247.156C153.525 247.156 154.37 246.805 155.007 246.181L154.539 245.544C154.032 246.064 153.317 246.35 152.589 246.35C151.237 246.35 150.418 245.362 150.34 244.179H155.41V243.932C155.41 242.047 154.292 240.565 152.394 240.565C150.6 240.565 149.3 242.034 149.3 243.854C149.3 245.817 150.639 247.156 152.511 247.156ZM154.448 243.451H150.327C150.379 242.502 151.042 241.371 152.381 241.371C153.811 241.371 154.435 242.528 154.448 243.451ZM158.992 247.156C160.604 247.156 161.449 246.311 161.449 245.258C161.449 242.814 157.562 243.711 157.562 242.346C157.562 241.787 158.095 241.358 158.953 241.358C159.772 241.358 160.448 241.696 160.825 242.151L161.28 241.475C160.786 240.968 160.032 240.565 158.953 240.565C157.458 240.565 156.626 241.384 156.626 242.372C156.626 244.699 160.513 243.763 160.513 245.284C160.513 245.908 159.98 246.363 159.018 246.363C158.16 246.363 157.367 245.947 156.951 245.466L156.457 246.168C157.094 246.831 157.952 247.156 158.992 247.156ZM164.632 247.156C165.191 247.156 165.542 246.987 165.789 246.753L165.503 246.012C165.373 246.155 165.126 246.285 164.84 246.285C164.424 246.285 164.216 245.947 164.216 245.479V241.579H165.49V240.721H164.216V239.005H163.228V240.721H162.188V241.579H163.228V245.687C163.228 246.623 163.696 247.156 164.632 247.156ZM167.348 239.824C167.712 239.824 167.998 239.538 167.998 239.174C167.998 238.81 167.712 238.511 167.348 238.511C166.984 238.511 166.685 238.81 166.685 239.174C166.685 239.538 166.984 239.824 167.348 239.824ZM167.829 247V240.721H166.854V247H167.829ZM174.987 247V242.593C174.987 241.228 174.298 240.565 172.998 240.565C172.049 240.565 171.191 241.098 170.749 241.631V240.721H169.774V247H170.749V242.411C171.126 241.904 171.841 241.436 172.608 241.436C173.453 241.436 174.025 241.774 174.025 242.892V247H174.987ZM179.469 249.548C181.003 249.548 182.472 248.898 182.472 246.909V240.721H181.497V241.67C180.99 240.981 180.223 240.565 179.378 240.565C177.727 240.565 176.583 241.813 176.583 243.828C176.583 245.856 177.74 247.078 179.378 247.078C180.262 247.078 181.029 246.597 181.497 245.96V246.909C181.497 248.235 180.509 248.742 179.469 248.742C178.572 248.742 177.948 248.508 177.428 247.897L176.934 248.599C177.688 249.34 178.416 249.548 179.469 249.548ZM179.625 246.207C178.351 246.207 177.597 245.206 177.597 243.828C177.597 242.437 178.351 241.436 179.625 241.436C180.392 241.436 181.146 241.904 181.497 242.437V245.193C181.146 245.739 180.392 246.207 179.625 246.207ZM186.842 247V238.329H185.893L183.722 240.565L184.372 241.228L185.763 239.746V247H186.842ZM194.51 247V246.038H190.259C192.677 244.127 194.471 242.515 194.471 240.747C194.471 239.018 193.002 238.199 191.559 238.199C190.337 238.199 189.206 238.68 188.543 239.564L189.206 240.253C189.713 239.603 190.519 239.161 191.559 239.161C192.456 239.161 193.379 239.629 193.379 240.747C193.379 242.242 191.676 243.685 188.556 246.129V247H194.51ZM198.955 247.156C200.866 247.156 202.036 246.103 202.036 244.66C202.036 243.256 200.814 242.593 200.034 242.515C200.84 242.385 201.893 241.761 201.893 240.5C201.893 239.044 200.632 238.199 198.968 238.199C197.616 238.199 196.615 238.771 195.991 239.538L196.589 240.214C197.226 239.525 197.928 239.161 198.877 239.161C199.93 239.161 200.814 239.681 200.814 240.643C200.814 241.644 199.891 242.073 198.799 242.073C198.448 242.073 198.045 242.073 197.902 242.06V243.048C198.032 243.035 198.435 243.035 198.799 243.035C200.073 243.035 200.957 243.49 200.957 244.569C200.957 245.557 200.19 246.194 198.929 246.194C197.902 246.194 197.018 245.726 196.511 245.05L195.874 245.726C196.407 246.506 197.486 247.156 198.955 247.156ZM204.228 247.13C204.618 247.13 204.943 246.805 204.943 246.415C204.943 246.025 204.618 245.7 204.228 245.7C203.838 245.7 203.513 246.025 203.513 246.415C203.513 246.805 203.838 247.13 204.228 247.13ZM209.397 247.156C210.541 247.156 211.217 246.688 211.698 246.064L211.048 245.466C210.632 246.025 210.099 246.285 209.449 246.285C208.123 246.285 207.278 245.245 207.278 243.854C207.278 242.463 208.123 241.436 209.449 241.436C210.099 241.436 210.632 241.67 211.048 242.242L211.698 241.657C211.217 241.033 210.541 240.565 209.397 240.565C207.525 240.565 206.264 241.995 206.264 243.854C206.264 245.713 207.525 247.156 209.397 247.156ZM215.821 247.156C217.732 247.156 218.928 245.674 218.928 243.854C218.928 242.034 217.732 240.565 215.821 240.565C213.91 240.565 212.714 242.034 212.714 243.854C212.714 245.674 213.91 247.156 215.821 247.156ZM215.821 246.285C214.482 246.285 213.741 245.141 213.741 243.854C213.741 242.58 214.482 241.436 215.821 241.436C217.16 241.436 217.901 242.58 217.901 243.854C217.901 245.141 217.16 246.285 215.821 246.285ZM229.071 247V242.463C229.071 241.202 228.46 240.565 227.316 240.565C226.406 240.565 225.561 241.163 225.21 241.735C225.028 241.085 224.482 240.565 223.533 240.565C222.597 240.565 221.765 241.228 221.492 241.631V240.721H220.517V247H221.492V242.411C221.83 241.904 222.506 241.436 223.143 241.436C223.975 241.436 224.3 241.943 224.3 242.736V247H225.275V242.398C225.6 241.891 226.289 241.436 226.939 241.436C227.758 241.436 228.096 241.943 228.096 242.736V247H229.071ZM231.536 247.13C231.926 247.13 232.251 246.805 232.251 246.415C232.251 246.025 231.926 245.7 231.536 245.7C231.146 245.7 230.821 246.025 230.821 246.415C230.821 246.805 231.146 247.13 231.536 247.13ZM238.926 247V242.684C238.926 241.163 237.834 240.565 236.495 240.565C235.468 240.565 234.662 240.903 233.986 241.605L234.441 242.281C235 241.67 235.611 241.41 236.365 241.41C237.275 241.41 237.951 241.891 237.951 242.723V243.854C237.444 243.282 236.729 243.009 235.871 243.009C234.805 243.009 233.687 243.659 233.687 245.076C233.687 246.441 234.818 247.156 235.871 247.156C236.716 247.156 237.444 246.857 237.951 246.285V247H238.926ZM236.235 246.454C235.312 246.454 234.675 245.882 234.675 245.076C234.675 244.283 235.312 243.711 236.235 243.711C236.911 243.711 237.574 243.971 237.951 244.478V245.674C237.574 246.194 236.911 246.454 236.235 246.454ZM246.106 247V240.721H245.131V245.336C244.767 245.843 244.039 246.285 243.285 246.285C242.427 246.285 241.868 245.96 241.868 244.855V240.721H240.893V245.154C240.893 246.506 241.582 247.156 242.895 247.156C243.831 247.156 244.65 246.662 245.131 246.116V247H246.106Z" fill="#7050E5"/>
<path d="M33.871 270V262.663H33.068L31.231 264.555L31.781 265.116L32.958 263.862V270H33.871ZM37.4885 270V262.663H36.6855L34.8485 264.555L35.3985 265.116L36.5755 263.862V270H37.4885ZM43.0068 270.132C44.3158 270.132 45.3388 269.373 45.3388 267.789V262.663H44.4258V267.778C44.4258 268.691 43.8538 269.318 42.9518 269.318C42.3138 269.318 41.8848 268.977 41.5768 268.592L41.0928 269.285C41.5988 269.879 42.2368 270.132 43.0068 270.132ZM51.3185 270V264.687H50.4935V268.592C50.1855 269.021 49.5695 269.395 48.9315 269.395C48.2055 269.395 47.7325 269.12 47.7325 268.185V264.687H46.9075V268.438C46.9075 269.582 47.4905 270.132 48.6015 270.132C49.3935 270.132 50.0865 269.714 50.4935 269.252V270H51.3185ZM57.2671 270V266.271C57.2671 265.116 56.6841 264.555 55.5841 264.555C54.7811 264.555 54.0551 265.006 53.6811 265.457V264.687H52.8561V270H53.6811V266.117C54.0001 265.688 54.6051 265.292 55.2541 265.292C55.9691 265.292 56.4531 265.578 56.4531 266.524V270H57.2671ZM61.2244 270.132C62.0824 270.132 62.7974 269.835 63.3364 269.307L62.9404 268.768C62.5114 269.208 61.9064 269.45 61.2904 269.45C60.1464 269.45 59.4534 268.614 59.3874 267.613H63.6774V267.404C63.6774 265.809 62.7314 264.555 61.1254 264.555C59.6074 264.555 58.5074 265.798 58.5074 267.338C58.5074 268.999 59.6404 270.132 61.2244 270.132ZM62.8634 266.997H59.3764C59.4204 266.194 59.9814 265.237 61.1144 265.237C62.3244 265.237 62.8524 266.216 62.8634 266.997ZM72.4473 270V269.186H68.8503C70.8963 267.569 72.4143 266.205 72.4143 264.709C72.4143 263.246 71.1713 262.553 69.9503 262.553C68.9163 262.553 67.9593 262.96 67.3983 263.708L67.9593 264.291C68.3883 263.741 69.0703 263.367 69.9503 263.367C70.7093 263.367 71.4903 263.763 71.4903 264.709C71.4903 265.974 70.0493 267.195 67.4093 269.263V270H72.4473ZM76.5381 270.132C78.5401 270.132 79.3431 268.119 79.3431 266.337C79.3431 264.544 78.5401 262.553 76.5381 262.553C74.5251 262.553 73.7331 264.544 73.7331 266.337C73.7331 268.119 74.5251 270.132 76.5381 270.132ZM76.5381 269.318C75.1411 269.318 74.6681 267.8 74.6681 266.337C74.6681 264.874 75.1411 263.367 76.5381 263.367C77.9351 263.367 78.4081 264.874 78.4081 266.337C78.4081 267.8 77.9351 269.318 76.5381 269.318ZM82.6685 270V262.663H81.8655L80.0285 264.555L80.5785 265.116L81.7555 263.862V270H82.6685ZM86.814 270.132C88.409 270.132 89.377 268.999 89.377 267.734C89.377 266.172 88.299 265.391 86.979 265.391C86.033 265.391 85.219 266.029 84.9 266.535C84.9 266.436 84.9 266.348 84.9 266.249C84.9 264.808 85.538 263.367 86.968 263.367C87.727 263.367 88.156 263.675 88.53 264.115L88.992 263.433C88.541 262.905 87.903 262.553 86.968 262.553C84.9 262.553 83.976 264.357 83.976 266.337C83.976 268.339 84.757 270.132 86.814 270.132ZM86.77 269.318C85.494 269.318 85.01 268.185 84.933 267.272C85.329 266.634 86.033 266.183 86.77 266.183C87.705 266.183 88.453 266.689 88.453 267.767C88.453 268.46 87.903 269.318 86.77 269.318Z" fill="#555555"/>
<path d="M35.238 169V161.291H37.994V160.329H31.416V161.291H34.159V169H35.238ZM42.7986 169V164.684C42.7986 163.163 41.7066 162.565 40.3676 162.565C39.3406 162.565 38.5346 162.903 37.8586 163.605L38.3136 164.281C38.8726 163.67 39.4836 163.41 40.2376 163.41C41.1476 163.41 41.8236 163.891 41.8236 164.723V165.854C41.3166 165.282 40.6016 165.009 39.7436 165.009C38.6776 165.009 37.5596 165.659 37.5596 167.076C37.5596 168.441 38.6906 169.156 39.7436 169.156C40.5886 169.156 41.3166 168.857 41.8236 168.285V169H42.7986ZM40.1076 168.454C39.1846 168.454 38.5476 167.882 38.5476 167.076C38.5476 166.283 39.1846 165.711 40.1076 165.711C40.7836 165.711 41.4466 165.971 41.8236 166.478V167.674C41.4466 168.194 40.7836 168.454 40.1076 168.454ZM44.9998 161.824C45.3638 161.824 45.6498 161.538 45.6498 161.174C45.6498 160.81 45.3638 160.511 44.9998 160.511C44.6358 160.511 44.3368 160.81 44.3368 161.174C44.3368 161.538 44.6358 161.824 44.9998 161.824ZM45.4808 169V162.721H44.5058V169H45.4808ZM48.1407 169V160.329H47.1657V169H48.1407ZM52.5686 169.156C54.4796 169.156 55.6756 167.674 55.6756 165.854C55.6756 164.034 54.4796 162.565 52.5686 162.565C50.6576 162.565 49.4616 164.034 49.4616 165.854C49.4616 167.674 50.6576 169.156 52.5686 169.156ZM52.5686 168.285C51.2296 168.285 50.4886 167.141 50.4886 165.854C50.4886 164.58 51.2296 163.436 52.5686 163.436C53.9076 163.436 54.6486 164.58 54.6486 165.854C54.6486 167.141 53.9076 168.285 52.5686 168.285ZM57.9801 169V164.554C58.2661 164.047 59.0851 163.553 59.6961 163.553C59.8391 163.553 59.9561 163.566 60.0731 163.579V162.578C59.2151 162.578 58.4871 163.072 57.9801 163.722V162.721H57.0051V169H57.9801ZM63.8831 169.156C64.8971 169.156 65.7421 168.805 66.3791 168.181L65.9111 167.544C65.4041 168.064 64.6891 168.35 63.9611 168.35C62.6091 168.35 61.7901 167.362 61.7121 166.179H66.7821V165.932C66.7821 164.047 65.6641 162.565 63.7661 162.565C61.9721 162.565 60.6721 164.034 60.6721 165.854C60.6721 167.817 62.0111 169.156 63.8831 169.156ZM65.8201 165.451H61.6991C61.7511 164.502 62.4141 163.371 63.7531 163.371C65.1831 163.371 65.8071 164.528 65.8201 165.451ZM73.6263 169V160.329H72.6513V163.67C72.1443 162.981 71.3773 162.565 70.5323 162.565C68.8943 162.565 67.7373 163.852 67.7373 165.867C67.7373 167.908 68.8943 169.156 70.5323 169.156C71.4163 169.156 72.1833 168.701 72.6513 168.064V169H73.6263ZM70.7793 168.285C69.5053 168.285 68.7513 167.258 68.7513 165.867C68.7513 164.476 69.5053 163.436 70.7793 163.436C71.5463 163.436 72.3133 163.904 72.6513 164.45V167.284C72.3133 167.83 71.5463 168.285 70.7793 168.285ZM81.6861 169V161.291H84.4421V160.329H77.8641V161.291H80.6071V169H81.6861ZM85.4477 169V164.554C85.7337 164.047 86.5527 163.553 87.1637 163.553C87.3067 163.553 87.4237 163.566 87.5407 163.579V162.578C86.6827 162.578 85.9547 163.072 85.4477 163.722V162.721H84.4727V169H85.4477ZM91.3507 169.156C92.3647 169.156 93.2097 168.805 93.8467 168.181L93.3787 167.544C92.8717 168.064 92.1567 168.35 91.4287 168.35C90.0767 168.35 89.2577 167.362 89.1797 166.179H94.2497V165.932C94.2497 164.047 93.1317 162.565 91.2337 162.565C89.4397 162.565 88.1397 164.034 88.1397 165.854C88.1397 167.817 89.4787 169.156 91.3507 169.156ZM93.2877 165.451H89.1667C89.2187 164.502 89.8817 163.371 91.2207 163.371C92.6507 163.371 93.2747 164.528 93.2877 165.451ZM100.782 169V164.593C100.782 163.228 100.093 162.565 98.7929 162.565C97.8439 162.565 96.9859 163.098 96.5439 163.631V162.721H95.5689V169H96.5439V164.411C96.9209 163.904 97.6359 163.436 98.4029 163.436C99.2479 163.436 99.8199 163.774 99.8199 164.892V169H100.782ZM108.007 169V160.329H107.032V163.67C106.525 162.981 105.758 162.565 104.913 162.565C103.275 162.565 102.118 163.852 102.118 165.867C102.118 167.908 103.275 169.156 104.913 169.156C105.797 169.156 106.564 168.701 107.032 168.064V169H108.007ZM105.16 168.285C103.886 168.285 103.132 167.258 103.132 165.867C103.132 164.476 103.886 163.436 105.16 163.436C105.927 163.436 106.694 163.904 107.032 164.45V167.284C106.694 167.83 105.927 168.285 105.16 168.285ZM111.701 169.156C113.313 169.156 114.158 168.311 114.158 167.258C114.158 164.814 110.271 165.711 110.271 164.346C110.271 163.787 110.804 163.358 111.662 163.358C112.481 163.358 113.157 163.696 113.534 164.151L113.989 163.475C113.495 162.968 112.741 162.565 111.662 162.565C110.167 162.565 109.335 163.384 109.335 164.372C109.335 166.699 113.222 165.763 113.222 167.284C113.222 167.908 112.689 168.363 111.727 168.363C110.869 168.363 110.076 167.947 109.66 167.466L109.166 168.168C109.803 168.831 110.661 169.156 111.701 169.156ZM119.561 167.297V164.45C119.899 163.904 120.666 163.436 121.446 163.436C122.707 163.436 123.461 164.476 123.461 165.867C123.461 167.258 122.707 168.285 121.446 168.285C120.666 168.285 119.899 167.843 119.561 167.297ZM119.561 169V168.064C120.029 168.701 120.796 169.156 121.68 169.156C123.318 169.156 124.475 167.908 124.475 165.867C124.475 163.852 123.331 162.565 121.68 162.565C120.835 162.565 120.068 162.981 119.561 163.67V160.329H118.586V169H119.561ZM126.779 169V164.554C127.065 164.047 127.884 163.553 128.495 163.553C128.638 163.553 128.755 163.566 128.872 163.579V162.578C128.014 162.578 127.286 163.072 126.779 163.722V162.721H125.804V169H126.779ZM130.329 161.824C130.693 161.824 130.979 161.538 130.979 161.174C130.979 160.81 130.693 160.511 130.329 160.511C129.965 160.511 129.666 160.81 129.666 161.174C129.666 161.538 129.965 161.824 130.329 161.824ZM130.81 169V162.721H129.835V169H130.81ZM137.708 169V164.593C137.708 163.228 137.019 162.565 135.719 162.565C134.77 162.565 133.912 163.098 133.47 163.631V162.721H132.495V169H133.47V164.411C133.847 163.904 134.562 163.436 135.329 163.436C136.174 163.436 136.746 163.774 136.746 164.892V169H137.708ZM141.93 171.548C143.464 171.548 144.933 170.898 144.933 168.909V162.721H143.958V163.67C143.451 162.981 142.684 162.565 141.839 162.565C140.188 162.565 139.044 163.813 139.044 165.828C139.044 167.856 140.201 169.078 141.839 169.078C142.723 169.078 143.49 168.597 143.958 167.96V168.909C143.958 170.235 142.97 170.742 141.93 170.742C141.033 170.742 140.409 170.508 139.889 169.897L139.395 170.599C140.149 171.34 140.877 171.548 141.93 171.548ZM142.086 168.207C140.812 168.207 140.058 167.206 140.058 165.828C140.058 164.437 140.812 163.436 142.086 163.436C142.853 163.436 143.607 163.904 143.958 164.437V167.193C143.607 167.739 142.853 168.207 142.086 168.207ZM149.392 171.457C149.561 171.509 149.886 171.548 150.094 171.548C150.926 171.535 151.563 171.184 151.94 170.274L155.086 162.721H154.033L151.94 167.869L149.86 162.721H148.794L151.42 169.065L151.004 170.014C150.783 170.534 150.497 170.677 150.068 170.677C149.912 170.677 149.678 170.638 149.535 170.573L149.392 171.457ZM158.586 169.156C160.497 169.156 161.693 167.674 161.693 165.854C161.693 164.034 160.497 162.565 158.586 162.565C156.675 162.565 155.479 164.034 155.479 165.854C155.479 167.674 156.675 169.156 158.586 169.156ZM158.586 168.285C157.247 168.285 156.506 167.141 156.506 165.854C156.506 164.58 157.247 163.436 158.586 163.436C159.925 163.436 160.666 164.58 160.666 165.854C160.666 167.141 159.925 168.285 158.586 168.285ZM168.235 169V162.721H167.26V167.336C166.896 167.843 166.168 168.285 165.414 168.285C164.556 168.285 163.997 167.96 163.997 166.855V162.721H163.022V167.154C163.022 168.506 163.711 169.156 165.024 169.156C165.96 169.156 166.779 168.662 167.26 168.116V169H168.235ZM175.796 169.156C176.94 169.156 177.616 168.688 178.097 168.064L177.447 167.466C177.031 168.025 176.498 168.285 175.848 168.285C174.522 168.285 173.677 167.245 173.677 165.854C173.677 164.463 174.522 163.436 175.848 163.436C176.498 163.436 177.031 163.67 177.447 164.242L178.097 163.657C177.616 163.033 176.94 162.565 175.796 162.565C173.924 162.565 172.663 163.995 172.663 165.854C172.663 167.713 173.924 169.156 175.796 169.156ZM180.191 169V160.329H179.216V169H180.191ZM184.619 169.156C186.53 169.156 187.726 167.674 187.726 165.854C187.726 164.034 186.53 162.565 184.619 162.565C182.708 162.565 181.512 164.034 181.512 165.854C181.512 167.674 182.708 169.156 184.619 169.156ZM184.619 168.285C183.28 168.285 182.539 167.141 182.539 165.854C182.539 164.58 183.28 163.436 184.619 163.436C185.958 163.436 186.699 164.58 186.699 165.854C186.699 167.141 185.958 168.285 184.619 168.285ZM191.057 169.156C192.669 169.156 193.514 168.311 193.514 167.258C193.514 164.814 189.627 165.711 189.627 164.346C189.627 163.787 190.16 163.358 191.018 163.358C191.837 163.358 192.513 163.696 192.89 164.151L193.345 163.475C192.851 162.968 192.097 162.565 191.018 162.565C189.523 162.565 188.691 163.384 188.691 164.372C188.691 166.699 192.578 165.763 192.578 167.284C192.578 167.908 192.045 168.363 191.083 168.363C190.225 168.363 189.432 167.947 189.016 167.466L188.522 168.168C189.159 168.831 190.017 169.156 191.057 169.156ZM197.685 169.156C198.699 169.156 199.544 168.805 200.181 168.181L199.713 167.544C199.206 168.064 198.491 168.35 197.763 168.35C196.411 168.35 195.592 167.362 195.514 166.179H200.584V165.932C200.584 164.047 199.466 162.565 197.568 162.565C195.774 162.565 194.474 164.034 194.474 165.854C194.474 167.817 195.813 169.156 197.685 169.156ZM199.622 165.451H195.501C195.553 164.502 196.216 163.371 197.555 163.371C198.985 163.371 199.609 164.528 199.622 165.451ZM202.878 169V164.554C203.164 164.047 203.983 163.553 204.594 163.553C204.737 163.553 204.854 163.566 204.971 163.579V162.578C204.113 162.578 203.385 163.072 202.878 163.722V162.721H201.903V169H202.878Z" fill="#999999"/>
<path d="M37.201 189V184.567C37.201 183.202 36.512 182.565 35.199 182.565C34.25 182.565 33.392 183.098 32.963 183.631V180.329H31.988V189H32.963V184.411C33.327 183.904 34.055 183.436 34.809 183.436C35.667 183.436 36.226 183.748 36.226 184.866V189H37.201ZM40.7469 189.156C41.3059 189.156 41.6569 188.987 41.9039 188.753L41.6179 188.012C41.4879 188.155 41.2409 188.285 40.9549 188.285C40.5389 188.285 40.3309 187.947 40.3309 187.479V183.579H41.6049V182.721H40.3309V181.005H39.3429V182.721H38.3029V183.579H39.3429V187.687C39.3429 188.623 39.8109 189.156 40.7469 189.156ZM44.5681 189.156C45.1271 189.156 45.4781 188.987 45.7251 188.753L45.4391 188.012C45.3091 188.155 45.0621 188.285 44.7761 188.285C44.3601 188.285 44.1521 187.947 44.1521 187.479V183.579H45.4261V182.721H44.1521V181.005H43.1641V182.721H42.1241V183.579H43.1641V187.687C43.1641 188.623 43.6321 189.156 44.5681 189.156ZM49.8844 189.156C51.5354 189.156 52.6794 187.882 52.6794 185.854C52.6794 183.813 51.5354 182.565 49.8844 182.565C49.0004 182.565 48.2204 183.02 47.7654 183.657V182.721H46.7904V191.392H47.7654V188.051C48.2854 188.74 49.0264 189.156 49.8844 189.156ZM49.6374 188.285C48.8704 188.285 48.1034 187.817 47.7654 187.271V184.437C48.1034 183.891 48.8704 183.436 49.6374 183.436C50.8984 183.436 51.6524 184.463 51.6524 185.854C51.6524 187.245 50.8984 188.285 49.6374 188.285ZM54.7499 184.06C55.1399 184.06 55.4649 183.722 55.4649 183.345C55.4649 182.955 55.1399 182.63 54.7499 182.63C54.3599 182.63 54.0349 182.955 54.0349 183.345C54.0349 183.722 54.3599 184.06 54.7499 184.06ZM54.7499 189.13C55.1399 189.13 55.4649 188.805 55.4649 188.415C55.4649 188.025 55.1399 187.7 54.7499 187.7C54.3599 187.7 54.0349 188.025 54.0349 188.415C54.0349 188.805 54.3599 189.13 54.7499 189.13ZM56.9418 189.26L60.0228 180.069H59.2558L56.1748 189.26H56.9418ZM60.7885 189.26L63.8695 180.069H63.1025L60.0215 189.26H60.7885ZM67.3782 186.283V185.425H64.2582V186.283H67.3782ZM70.3396 189.156C70.8986 189.156 71.2496 188.987 71.4966 188.753L71.2106 188.012C71.0806 188.155 70.8336 188.285 70.5476 188.285C70.1316 188.285 69.9236 187.947 69.9236 187.479V183.579H71.1976V182.721H69.9236V181.005H68.9356V182.721H67.8956V183.579H68.9356V187.687C68.9356 188.623 69.4036 189.156 70.3396 189.156ZM75.4089 189.156C76.4229 189.156 77.2679 188.805 77.9049 188.181L77.4369 187.544C76.9299 188.064 76.2149 188.35 75.4869 188.35C74.1349 188.35 73.3159 187.362 73.2379 186.179H78.3079V185.932C78.3079 184.047 77.1899 182.565 75.2919 182.565C73.4979 182.565 72.1979 184.034 72.1979 185.854C72.1979 187.817 73.5369 189.156 75.4089 189.156ZM77.3459 185.451H73.2249C73.2769 184.502 73.9399 183.371 75.2789 183.371C76.7089 183.371 77.3329 184.528 77.3459 185.451ZM81.8891 189.156C83.5011 189.156 84.3461 188.311 84.3461 187.258C84.3461 184.814 80.4591 185.711 80.4591 184.346C80.4591 183.787 80.9921 183.358 81.8501 183.358C82.6691 183.358 83.3451 183.696 83.7221 184.151L84.1771 183.475C83.6831 182.968 82.9291 182.565 81.8501 182.565C80.3551 182.565 79.5231 183.384 79.5231 184.372C79.5231 186.699 83.4101 185.763 83.4101 187.284C83.4101 187.908 82.8771 188.363 81.9151 188.363C81.0571 188.363 80.2641 187.947 79.8481 187.466L79.3541 188.168C79.9911 188.831 80.8491 189.156 81.8891 189.156ZM87.5291 189.156C88.0881 189.156 88.4391 188.987 88.6861 188.753L88.4001 188.012C88.2701 188.155 88.0231 188.285 87.7371 188.285C87.3211 188.285 87.1131 187.947 87.1131 187.479V183.579H88.3871V182.721H87.1131V181.005H86.1251V182.721H85.0851V183.579H86.1251V187.687C86.1251 188.623 86.5931 189.156 87.5291 189.156ZM90.2454 181.824C90.6094 181.824 90.8954 181.538 90.8954 181.174C90.8954 180.81 90.6094 180.511 90.2454 180.511C89.8814 180.511 89.5824 180.81 89.5824 181.174C89.5824 181.538 89.8814 181.824 90.2454 181.824ZM90.7264 189V182.721H89.7514V189H90.7264ZM97.8843 189V184.593C97.8843 183.228 97.1953 182.565 95.8953 182.565C94.9463 182.565 94.0883 183.098 93.6463 183.631V182.721H92.6713V189H93.6463V184.411C94.0233 183.904 94.7383 183.436 95.5053 183.436C96.3503 183.436 96.9223 183.774 96.9223 184.892V189H97.8843ZM102.366 191.548C103.9 191.548 105.369 190.898 105.369 188.909V182.721H104.394V183.67C103.887 182.981 103.12 182.565 102.275 182.565C100.624 182.565 99.4801 183.813 99.4801 185.828C99.4801 187.856 100.637 189.078 102.275 189.078C103.159 189.078 103.926 188.597 104.394 187.96V188.909C104.394 190.235 103.406 190.742 102.366 190.742C101.469 190.742 100.845 190.508 100.325 189.897L99.8311 190.599C100.585 191.34 101.313 191.548 102.366 191.548ZM102.522 188.207C101.248 188.207 100.494 187.206 100.494 185.828C100.494 184.437 101.248 183.436 102.522 183.436C103.289 183.436 104.043 183.904 104.394 184.437V187.193C104.043 187.739 103.289 188.207 102.522 188.207ZM109.74 189V180.329H108.791L106.62 182.565L107.27 183.228L108.661 181.746V189H109.74ZM117.408 189V188.038H113.157C115.575 186.127 117.369 184.515 117.369 182.747C117.369 181.018 115.9 180.199 114.457 180.199C113.235 180.199 112.104 180.68 111.441 181.564L112.104 182.253C112.611 181.603 113.417 181.161 114.457 181.161C115.354 181.161 116.277 181.629 116.277 182.747C116.277 184.242 114.574 185.685 111.454 188.129V189H117.408ZM121.853 189.156C123.764 189.156 124.934 188.103 124.934 186.66C124.934 185.256 123.712 184.593 122.932 184.515C123.738 184.385 124.791 183.761 124.791 182.5C124.791 181.044 123.53 180.199 121.866 180.199C120.514 180.199 119.513 180.771 118.889 181.538L119.487 182.214C120.124 181.525 120.826 181.161 121.775 181.161C122.828 181.161 123.712 181.681 123.712 182.643C123.712 183.644 122.789 184.073 121.697 184.073C121.346 184.073 120.943 184.073 120.8 184.06V185.048C120.93 185.035 121.333 185.035 121.697 185.035C122.971 185.035 123.855 185.49 123.855 186.569C123.855 187.557 123.088 188.194 121.827 188.194C120.8 188.194 119.916 187.726 119.409 187.05L118.772 187.726C119.305 188.506 120.384 189.156 121.853 189.156ZM127.126 189.13C127.516 189.13 127.841 188.805 127.841 188.415C127.841 188.025 127.516 187.7 127.126 187.7C126.736 187.7 126.411 188.025 126.411 188.415C126.411 188.805 126.736 189.13 127.126 189.13ZM132.295 189.156C133.439 189.156 134.115 188.688 134.596 188.064L133.946 187.466C133.53 188.025 132.997 188.285 132.347 188.285C131.021 188.285 130.176 187.245 130.176 185.854C130.176 184.463 131.021 183.436 132.347 183.436C132.997 183.436 133.53 183.67 133.946 184.242L134.596 183.657C134.115 183.033 133.439 182.565 132.295 182.565C130.423 182.565 129.162 183.995 129.162 185.854C129.162 187.713 130.423 189.156 132.295 189.156ZM138.718 189.156C140.629 189.156 141.825 187.674 141.825 185.854C141.825 184.034 140.629 182.565 138.718 182.565C136.807 182.565 135.611 184.034 135.611 185.854C135.611 187.674 136.807 189.156 138.718 189.156ZM138.718 188.285C137.379 188.285 136.638 187.141 136.638 185.854C136.638 184.58 137.379 183.436 138.718 183.436C140.057 183.436 140.798 184.58 140.798 185.854C140.798 187.141 140.057 188.285 138.718 188.285ZM151.968 189V184.463C151.968 183.202 151.357 182.565 150.213 182.565C149.303 182.565 148.458 183.163 148.107 183.735C147.925 183.085 147.379 182.565 146.43 182.565C145.494 182.565 144.662 183.228 144.389 183.631V182.721H143.414V189H144.389V184.411C144.727 183.904 145.403 183.436 146.04 183.436C146.872 183.436 147.197 183.943 147.197 184.736V189H148.172V184.398C148.497 183.891 149.186 183.436 149.836 183.436C150.655 183.436 150.993 183.943 150.993 184.736V189H151.968ZM154.433 189.13C154.823 189.13 155.148 188.805 155.148 188.415C155.148 188.025 154.823 187.7 154.433 187.7C154.043 187.7 153.718 188.025 153.718 188.415C153.718 188.805 154.043 189.13 154.433 189.13ZM161.823 189V184.684C161.823 183.163 160.731 182.565 159.392 182.565C158.365 182.565 157.559 182.903 156.883 183.605L157.338 184.281C157.897 183.67 158.508 183.41 159.262 183.41C160.172 183.41 160.848 183.891 160.848 184.723V185.854C160.341 185.282 159.626 185.009 158.768 185.009C157.702 185.009 156.584 185.659 156.584 187.076C156.584 188.441 157.715 189.156 158.768 189.156C159.613 189.156 160.341 188.857 160.848 188.285V189H161.823ZM159.132 188.454C158.209 188.454 157.572 187.882 157.572 187.076C157.572 186.283 158.209 185.711 159.132 185.711C159.808 185.711 160.471 185.971 160.848 186.478V187.674C160.471 188.194 159.808 188.454 159.132 188.454ZM169.003 189V182.721H168.028V187.336C167.664 187.843 166.936 188.285 166.182 188.285C165.324 188.285 164.765 187.96 164.765 186.855V182.721H163.79V187.154C163.79 188.506 164.479 189.156 165.792 189.156C166.728 189.156 167.547 188.662 168.028 188.116V189H169.003Z" fill="#7050E5"/>
<path d="M33.871 212V204.663H33.068L31.231 206.555L31.781 207.116L32.958 205.862V212H33.871ZM40.2495 212V211.186H36.6525C38.6985 209.569 40.2165 208.205 40.2165 206.709C40.2165 205.246 38.9735 204.553 37.7525 204.553C36.7185 204.553 35.7615 204.96 35.2005 205.708L35.7615 206.291C36.1905 205.741 36.8725 205.367 37.7525 205.367C38.5115 205.367 39.2925 205.763 39.2925 206.709C39.2925 207.974 37.8515 209.195 35.2115 211.263V212H40.2495ZM45.746 212.132C47.055 212.132 48.078 211.373 48.078 209.789V204.663H47.165V209.778C47.165 210.691 46.593 211.318 45.691 211.318C45.053 211.318 44.624 210.977 44.316 210.592L43.832 211.285C44.338 211.879 44.976 212.132 45.746 212.132ZM54.0577 212V206.687H53.2327V210.592C52.9247 211.021 52.3087 211.395 51.6707 211.395C50.9447 211.395 50.4717 211.12 50.4717 210.185V206.687H49.6467V210.438C49.6467 211.582 50.2297 212.132 51.3407 212.132C52.1327 212.132 52.8257 211.714 53.2327 211.252V212H54.0577ZM60.0063 212V208.271C60.0063 207.116 59.4233 206.555 58.3233 206.555C57.5203 206.555 56.7943 207.006 56.4203 207.457V206.687H55.5953V212H56.4203V208.117C56.7393 207.688 57.3443 207.292 57.9933 207.292C58.7083 207.292 59.1923 207.578 59.1923 208.524V212H60.0063ZM63.9636 212.132C64.8216 212.132 65.5366 211.835 66.0756 211.307L65.6796 210.768C65.2506 211.208 64.6456 211.45 64.0296 211.45C62.8856 211.45 62.1926 210.614 62.1266 209.613H66.4166V209.404C66.4166 207.809 65.4706 206.555 63.8646 206.555C62.3466 206.555 61.2466 207.798 61.2466 209.338C61.2466 210.999 62.3796 212.132 63.9636 212.132ZM65.6026 208.997H62.1156C62.1596 208.194 62.7206 207.237 63.8536 207.237C65.0636 207.237 65.5916 208.216 65.6026 208.997ZM75.1866 212V211.186H71.5896C73.6356 209.569 75.1536 208.205 75.1536 206.709C75.1536 205.246 73.9106 204.553 72.6896 204.553C71.6556 204.553 70.6986 204.96 70.1376 205.708L70.6986 206.291C71.1276 205.741 71.8096 205.367 72.6896 205.367C73.4486 205.367 74.2296 205.763 74.2296 206.709C74.2296 207.974 72.7886 209.195 70.1486 211.263V212H75.1866ZM79.2774 212.132C81.2794 212.132 82.0824 210.119 82.0824 208.337C82.0824 206.544 81.2794 204.553 79.2774 204.553C77.2644 204.553 76.4724 206.544 76.4724 208.337C76.4724 210.119 77.2644 212.132 79.2774 212.132ZM79.2774 211.318C77.8804 211.318 77.4074 209.8 77.4074 208.337C77.4074 206.874 77.8804 205.367 79.2774 205.367C80.6744 205.367 81.1474 206.874 81.1474 208.337C81.1474 209.8 80.6744 211.318 79.2774 211.318ZM85.4077 212V204.663H84.6047L82.7677 206.555L83.3177 207.116L84.4947 205.862V212H85.4077ZM89.5533 212.132C91.1483 212.132 92.1163 210.999 92.1163 209.734C92.1163 208.172 91.0383 207.391 89.7183 207.391C88.7723 207.391 87.9583 208.029 87.6393 208.535C87.6393 208.436 87.6393 208.348 87.6393 208.249C87.6393 206.808 88.2773 205.367 89.7073 205.367C90.4663 205.367 90.8953 205.675 91.2693 206.115L91.7313 205.433C91.2803 204.905 90.6423 204.553 89.7073 204.553C87.6393 204.553 86.7153 206.357 86.7153 208.337C86.7153 210.339 87.4963 212.132 89.5533 212.132ZM89.5093 211.318C88.2333 211.318 87.7493 210.185 87.6723 209.272C88.0683 208.634 88.7723 208.183 89.5093 208.183C90.4443 208.183 91.1923 208.689 91.1923 209.767C91.1923 210.46 90.6423 211.318 89.5093 211.318Z" fill="#555555"/>
<path d="M37.695 93V92.038H33.093V89.048H37.604V88.086H33.093V85.291H37.695V84.329H32.014V93H37.695ZM44.3164 93L41.8984 89.776L44.1734 86.721H43.0554L41.3004 89.113L39.5584 86.721H38.4274L40.7024 89.776L38.2974 93H39.4154L41.3004 90.426L43.1984 93H44.3164ZM48.2853 93.156C49.9363 93.156 51.0803 91.882 51.0803 89.854C51.0803 87.813 49.9363 86.565 48.2853 86.565C47.4013 86.565 46.6213 87.02 46.1663 87.657V86.721H45.1913V95.392H46.1663V92.051C46.6863 92.74 47.4273 93.156 48.2853 93.156ZM48.0383 92.285C47.2713 92.285 46.5043 91.817 46.1663 91.271V88.437C46.5043 87.891 47.2713 87.436 48.0383 87.436C49.2993 87.436 50.0533 88.463 50.0533 89.854C50.0533 91.245 49.2993 92.285 48.0383 92.285ZM55.2178 93.156C56.2318 93.156 57.0768 92.805 57.7138 92.181L57.2458 91.544C56.7388 92.064 56.0238 92.35 55.2958 92.35C53.9438 92.35 53.1248 91.362 53.0468 90.179H58.1168V89.932C58.1168 88.047 56.9988 86.565 55.1008 86.565C53.3068 86.565 52.0068 88.034 52.0068 89.854C52.0068 91.817 53.3458 93.156 55.2178 93.156ZM57.1548 89.451H53.0338C53.0858 88.502 53.7488 87.371 55.0878 87.371C56.5178 87.371 57.1418 88.528 57.1548 89.451ZM60.411 93V88.554C60.697 88.047 61.516 87.553 62.127 87.553C62.27 87.553 62.387 87.566 62.504 87.579V86.578C61.646 86.578 60.918 87.072 60.411 87.722V86.721H59.436V93H60.411ZM63.961 85.824C64.325 85.824 64.611 85.538 64.611 85.174C64.611 84.81 64.325 84.511 63.961 84.511C63.597 84.511 63.298 84.81 63.298 85.174C63.298 85.538 63.597 85.824 63.961 85.824ZM64.442 93V86.721H63.467V93H64.442ZM68.9739 93.156C69.9879 93.156 70.8329 92.805 71.4699 92.181L71.0019 91.544C70.4949 92.064 69.7799 92.35 69.0519 92.35C67.6999 92.35 66.8809 91.362 66.8029 90.179H71.8729V89.932C71.8729 88.047 70.7549 86.565 68.8569 86.565C67.0629 86.565 65.7629 88.034 65.7629 89.854C65.7629 91.817 67.1019 93.156 68.9739 93.156ZM70.9109 89.451H66.7899C66.8419 88.502 67.5049 87.371 68.8439 87.371C70.2739 87.371 70.8979 88.528 70.9109 89.451ZM78.4051 93V88.593C78.4051 87.228 77.7161 86.565 76.4161 86.565C75.4671 86.565 74.6091 87.098 74.1671 87.631V86.721H73.1921V93H74.1671V88.411C74.5441 87.904 75.2591 87.436 76.0261 87.436C76.8711 87.436 77.4431 87.774 77.4431 88.892V93H78.4051ZM82.874 93.156C84.018 93.156 84.694 92.688 85.175 92.064L84.525 91.466C84.109 92.025 83.576 92.285 82.926 92.285C81.6 92.285 80.755 91.245 80.755 89.854C80.755 88.463 81.6 87.436 82.926 87.436C83.576 87.436 84.109 87.67 84.525 88.242L85.175 87.657C84.694 87.033 84.018 86.565 82.874 86.565C81.002 86.565 79.741 87.995 79.741 89.854C79.741 91.713 81.002 93.156 82.874 93.156ZM89.1412 93.156C90.1552 93.156 91.0002 92.805 91.6372 92.181L91.1692 91.544C90.6622 92.064 89.9472 92.35 89.2192 92.35C87.8672 92.35 87.0482 91.362 86.9702 90.179H92.0402V89.932C92.0402 88.047 90.9222 86.565 89.0242 86.565C87.2302 86.565 85.9302 88.034 85.9302 89.854C85.9302 91.817 87.2692 93.156 89.1412 93.156ZM91.0782 89.451H86.9572C87.0092 88.502 87.6722 87.371 89.0112 87.371C90.4412 87.371 91.0652 88.528 91.0782 89.451ZM105.018 93V88.463C105.018 87.202 104.407 86.565 103.263 86.565C102.353 86.565 101.508 87.163 101.157 87.735C100.975 87.085 100.429 86.565 99.4796 86.565C98.5436 86.565 97.7116 87.228 97.4386 87.631V86.721H96.4636V93H97.4386V88.411C97.7766 87.904 98.4526 87.436 99.0896 87.436C99.9216 87.436 100.247 87.943 100.247 88.736V93H101.222V88.398C101.547 87.891 102.236 87.436 102.886 87.436C103.705 87.436 104.043 87.943 104.043 88.736V93H105.018ZM109.446 93.156C111.357 93.156 112.553 91.674 112.553 89.854C112.553 88.034 111.357 86.565 109.446 86.565C107.535 86.565 106.339 88.034 106.339 89.854C106.339 91.674 107.535 93.156 109.446 93.156ZM109.446 92.285C108.107 92.285 107.366 91.141 107.366 89.854C107.366 88.58 108.107 87.436 109.446 87.436C110.785 87.436 111.526 88.58 111.526 89.854C111.526 91.141 110.785 92.285 109.446 92.285ZM114.857 93V88.554C115.143 88.047 115.962 87.553 116.573 87.553C116.716 87.553 116.833 87.566 116.95 87.579V86.578C116.092 86.578 115.364 87.072 114.857 87.722V86.721H113.882V93H114.857ZM120.76 93.156C121.774 93.156 122.619 92.805 123.256 92.181L122.788 91.544C122.281 92.064 121.566 92.35 120.838 92.35C119.486 92.35 118.667 91.362 118.589 90.179H123.659V89.932C123.659 88.047 122.541 86.565 120.643 86.565C118.849 86.565 117.549 88.034 117.549 89.854C117.549 91.817 118.888 93.156 120.76 93.156ZM122.697 89.451H118.576C118.628 88.502 119.291 87.371 120.63 87.371C122.06 87.371 122.684 88.528 122.697 89.451ZM134.505 93L136.507 86.721H135.48L133.946 91.726L132.308 86.721H131.463L129.812 91.726L128.278 86.721H127.264L129.266 93H130.241L131.879 87.956L133.517 93H134.505ZM137.863 85.824C138.227 85.824 138.513 85.538 138.513 85.174C138.513 84.81 138.227 84.511 137.863 84.511C137.499 84.511 137.2 84.81 137.2 85.174C137.2 85.538 137.499 85.824 137.863 85.824ZM138.344 93V86.721H137.369V93H138.344ZM141.628 93.156C142.187 93.156 142.538 92.987 142.785 92.753L142.499 92.012C142.369 92.155 142.122 92.285 141.836 92.285C141.42 92.285 141.212 91.947 141.212 91.479V87.579H142.486V86.721H141.212V85.005H140.224V86.721H139.184V87.579H140.224V91.687C140.224 92.623 140.692 93.156 141.628 93.156ZM148.817 93V88.567C148.817 87.202 148.128 86.565 146.815 86.565C145.866 86.565 145.008 87.098 144.579 87.631V84.329H143.604V93H144.579V88.411C144.943 87.904 145.671 87.436 146.425 87.436C147.283 87.436 147.842 87.748 147.842 88.866V93H148.817ZM156.455 93.156C157.469 93.156 158.314 92.805 158.951 92.181L158.483 91.544C157.976 92.064 157.261 92.35 156.533 92.35C155.181 92.35 154.362 91.362 154.284 90.179H159.354V89.932C159.354 88.047 158.236 86.565 156.338 86.565C154.544 86.565 153.244 88.034 153.244 89.854C153.244 91.817 154.583 93.156 156.455 93.156ZM158.392 89.451H154.271C154.323 88.502 154.986 87.371 156.325 87.371C157.755 87.371 158.379 88.528 158.392 89.451ZM165.873 93L163.455 89.776L165.73 86.721H164.612L162.857 89.113L161.115 86.721H159.984L162.259 89.776L159.854 93H160.972L162.857 90.426L164.755 93H165.873ZM169.842 93.156C171.493 93.156 172.637 91.882 172.637 89.854C172.637 87.813 171.493 86.565 169.842 86.565C168.958 86.565 168.178 87.02 167.723 87.657V86.721H166.748V95.392H167.723V92.051C168.243 92.74 168.984 93.156 169.842 93.156ZM169.595 92.285C168.828 92.285 168.061 91.817 167.723 91.271V88.437C168.061 87.891 168.828 87.436 169.595 87.436C170.856 87.436 171.61 88.463 171.61 89.854C171.61 91.245 170.856 92.285 169.595 92.285ZM178.828 93V88.684C178.828 87.163 177.736 86.565 176.397 86.565C175.37 86.565 174.564 86.903 173.888 87.605L174.343 88.281C174.902 87.67 175.513 87.41 176.267 87.41C177.177 87.41 177.853 87.891 177.853 88.723V89.854C177.346 89.282 176.631 89.009 175.773 89.009C174.707 89.009 173.589 89.659 173.589 91.076C173.589 92.441 174.72 93.156 175.773 93.156C176.618 93.156 177.346 92.857 177.853 92.285V93H178.828ZM176.137 92.454C175.214 92.454 174.577 91.882 174.577 91.076C174.577 90.283 175.214 89.711 176.137 89.711C176.813 89.711 177.476 89.971 177.853 90.478V91.674C177.476 92.194 176.813 92.454 176.137 92.454ZM185.749 93V88.593C185.749 87.228 185.06 86.565 183.76 86.565C182.811 86.565 181.953 87.098 181.511 87.631V86.721H180.536V93H181.511V88.411C181.888 87.904 182.603 87.436 183.37 87.436C184.215 87.436 184.787 87.774 184.787 88.892V93H185.749ZM192.973 93V84.329H191.998V87.67C191.491 86.981 190.724 86.565 189.879 86.565C188.241 86.565 187.084 87.852 187.084 89.867C187.084 91.908 188.241 93.156 189.879 93.156C190.763 93.156 191.53 92.701 191.998 92.064V93H192.973ZM190.126 92.285C188.852 92.285 188.098 91.258 188.098 89.867C188.098 88.476 188.852 87.436 190.126 87.436C190.893 87.436 191.66 87.904 191.998 88.45V91.284C191.66 91.83 190.893 92.285 190.126 92.285ZM197.513 93.156C198.527 93.156 199.372 92.805 200.009 92.181L199.541 91.544C199.034 92.064 198.319 92.35 197.591 92.35C196.239 92.35 195.42 91.362 195.342 90.179H200.412V89.932C200.412 88.047 199.294 86.565 197.396 86.565C195.602 86.565 194.302 88.034 194.302 89.854C194.302 91.817 195.641 93.156 197.513 93.156ZM199.45 89.451H195.329C195.381 88.502 196.044 87.371 197.383 87.371C198.813 87.371 199.437 88.528 199.45 89.451ZM207.256 93V84.329H206.281V87.67C205.774 86.981 205.007 86.565 204.162 86.565C202.524 86.565 201.367 87.852 201.367 89.867C201.367 91.908 202.524 93.156 204.162 93.156C205.046 93.156 205.813 92.701 206.281 92.064V93H207.256ZM204.409 92.285C203.135 92.285 202.381 91.258 202.381 89.867C202.381 88.476 203.135 87.436 204.409 87.436C205.176 87.436 205.943 87.904 206.281 88.45V91.284C205.943 91.83 205.176 92.285 204.409 92.285ZM215.316 93V85.291H218.072V84.329H211.494V85.291H214.237V93H215.316ZM224.905 93L226.907 86.721H225.88L224.346 91.726L222.708 86.721H221.863L220.212 91.726L218.678 86.721H217.664L219.666 93H220.641L222.279 87.956L223.917 93H224.905ZM230.617 93.156C231.631 93.156 232.476 92.805 233.113 92.181L232.645 91.544C232.138 92.064 231.423 92.35 230.695 92.35C229.343 92.35 228.524 91.362 228.446 90.179H233.516V89.932C233.516 88.047 232.398 86.565 230.5 86.565C228.706 86.565 227.406 88.034 227.406 89.854C227.406 91.817 228.745 93.156 230.617 93.156ZM232.554 89.451H228.433C228.485 88.502 229.148 87.371 230.487 87.371C231.917 87.371 232.541 88.528 232.554 89.451ZM237.682 93.156C238.696 93.156 239.541 92.805 240.178 92.181L239.71 91.544C239.203 92.064 238.488 92.35 237.76 92.35C236.408 92.35 235.589 91.362 235.511 90.179H240.581V89.932C240.581 88.047 239.463 86.565 237.565 86.565C235.771 86.565 234.471 88.034 234.471 89.854C234.471 91.817 235.81 93.156 237.682 93.156ZM239.619 89.451H235.498C235.55 88.502 236.213 87.371 237.552 87.371C238.982 87.371 239.606 88.528 239.619 89.451ZM243.5 93.156C244.059 93.156 244.41 92.987 244.657 92.753L244.371 92.012C244.241 92.155 243.994 92.285 243.708 92.285C243.292 92.285 243.084 91.947 243.084 91.479V87.579H244.358V86.721H243.084V85.005H242.096V86.721H241.056V87.579H242.096V91.687C242.096 92.623 242.564 93.156 243.5 93.156ZM247.464 93.156C249.076 93.156 249.921 92.311 249.921 91.258C249.921 88.814 246.034 89.711 246.034 88.346C246.034 87.787 246.567 87.358 247.425 87.358C248.244 87.358 248.92 87.696 249.297 88.151L249.752 87.475C249.258 86.968 248.504 86.565 247.425 86.565C245.93 86.565 245.098 87.384 245.098 88.372C245.098 90.699 248.985 89.763 248.985 91.284C248.985 91.908 248.452 92.363 247.49 92.363C246.632 92.363 245.839 91.947 245.423 91.466L244.929 92.168C245.566 92.831 246.424 93.156 247.464 93.156Z" fill="#999999"/>
<path d="M37.201 113V108.567C37.201 107.202 36.512 106.565 35.199 106.565C34.25 106.565 33.392 107.098 32.963 107.631V104.329H31.988V113H32.963V108.411C33.327 107.904 34.055 107.436 34.809 107.436C35.667 107.436 36.226 107.748 36.226 108.866V113H37.201ZM40.7469 113.156C41.3059 113.156 41.6569 112.987 41.9039 112.753L41.6179 112.012C41.4879 112.155 41.2409 112.285 40.9549 112.285C40.5389 112.285 40.3309 111.947 40.3309 111.479V107.579H41.6049V106.721H40.3309V105.005H39.3429V106.721H38.3029V107.579H39.3429V111.687C39.3429 112.623 39.8109 113.156 40.7469 113.156ZM44.5681 113.156C45.1271 113.156 45.4781 112.987 45.7251 112.753L45.4391 112.012C45.3091 112.155 45.0621 112.285 44.7761 112.285C44.3601 112.285 44.1521 111.947 44.1521 111.479V107.579H45.4261V106.721H44.1521V105.005H43.1641V106.721H42.1241V107.579H43.1641V111.687C43.1641 112.623 43.6321 113.156 44.5681 113.156ZM49.8844 113.156C51.5354 113.156 52.6794 111.882 52.6794 109.854C52.6794 107.813 51.5354 106.565 49.8844 106.565C49.0004 106.565 48.2204 107.02 47.7654 107.657V106.721H46.7904V115.392H47.7654V112.051C48.2854 112.74 49.0264 113.156 49.8844 113.156ZM49.6374 112.285C48.8704 112.285 48.1034 111.817 47.7654 111.271V108.437C48.1034 107.891 48.8704 107.436 49.6374 107.436C50.8984 107.436 51.6524 108.463 51.6524 109.854C51.6524 111.245 50.8984 112.285 49.6374 112.285ZM54.7499 108.06C55.1399 108.06 55.4649 107.722 55.4649 107.345C55.4649 106.955 55.1399 106.63 54.7499 106.63C54.3599 106.63 54.0349 106.955 54.0349 107.345C54.0349 107.722 54.3599 108.06 54.7499 108.06ZM54.7499 113.13C55.1399 113.13 55.4649 112.805 55.4649 112.415C55.4649 112.025 55.1399 111.7 54.7499 111.7C54.3599 111.7 54.0349 112.025 54.0349 112.415C54.0349 112.805 54.3599 113.13 54.7499 113.13ZM56.9418 113.26L60.0228 104.069H59.2558L56.1748 113.26H56.9418ZM60.7885 113.26L63.8695 104.069H63.1025L60.0215 113.26H60.7885ZM66.4422 113.156C67.0012 113.156 67.3522 112.987 67.5992 112.753L67.3132 112.012C67.1832 112.155 66.9362 112.285 66.6502 112.285C66.2342 112.285 66.0262 111.947 66.0262 111.479V107.579H67.3002V106.721H66.0262V105.005H65.0382V106.721H63.9982V107.579H65.0382V111.687C65.0382 112.623 65.5062 113.156 66.4422 113.156ZM71.5115 113.156C72.5255 113.156 73.3705 112.805 74.0075 112.181L73.5395 111.544C73.0325 112.064 72.3175 112.35 71.5895 112.35C70.2375 112.35 69.4185 111.362 69.3405 110.179H74.4105V109.932C74.4105 108.047 73.2925 106.565 71.3945 106.565C69.6005 106.565 68.3005 108.034 68.3005 109.854C68.3005 111.817 69.6395 113.156 71.5115 113.156ZM73.4485 109.451H69.3275C69.3795 108.502 70.0425 107.371 71.3815 107.371C72.8115 107.371 73.4355 108.528 73.4485 109.451ZM77.9916 113.156C79.6036 113.156 80.4486 112.311 80.4486 111.258C80.4486 108.814 76.5616 109.711 76.5616 108.346C76.5616 107.787 77.0946 107.358 77.9526 107.358C78.7716 107.358 79.4476 107.696 79.8246 108.151L80.2796 107.475C79.7856 106.968 79.0316 106.565 77.9526 106.565C76.4576 106.565 75.6256 107.384 75.6256 108.372C75.6256 110.699 79.5126 109.763 79.5126 111.284C79.5126 111.908 78.9796 112.363 78.0176 112.363C77.1596 112.363 76.3666 111.947 75.9506 111.466L75.4566 112.168C76.0936 112.831 76.9516 113.156 77.9916 113.156ZM83.6316 113.156C84.1906 113.156 84.5416 112.987 84.7886 112.753L84.5026 112.012C84.3726 112.155 84.1256 112.285 83.8396 112.285C83.4236 112.285 83.2156 111.947 83.2156 111.479V107.579H84.4896V106.721H83.2156V105.005H82.2276V106.721H81.1876V107.579H82.2276V111.687C82.2276 112.623 82.6956 113.156 83.6316 113.156ZM86.3479 105.824C86.7119 105.824 86.9979 105.538 86.9979 105.174C86.9979 104.81 86.7119 104.511 86.3479 104.511C85.9839 104.511 85.6849 104.81 85.6849 105.174C85.6849 105.538 85.9839 105.824 86.3479 105.824ZM86.8289 113V106.721H85.8539V113H86.8289ZM93.9868 113V108.593C93.9868 107.228 93.2978 106.565 91.9978 106.565C91.0488 106.565 90.1908 107.098 89.7488 107.631V106.721H88.7738V113H89.7488V108.411C90.1258 107.904 90.8408 107.436 91.6078 107.436C92.4528 107.436 93.0248 107.774 93.0248 108.892V113H93.9868ZM98.4687 115.548C100.003 115.548 101.472 114.898 101.472 112.909V106.721H100.497V107.67C99.9897 106.981 99.2227 106.565 98.3777 106.565C96.7267 106.565 95.5827 107.813 95.5827 109.828C95.5827 111.856 96.7397 113.078 98.3777 113.078C99.2617 113.078 100.029 112.597 100.497 111.96V112.909C100.497 114.235 99.5087 114.742 98.4687 114.742C97.5717 114.742 96.9477 114.508 96.4277 113.897L95.9337 114.599C96.6877 115.34 97.4157 115.548 98.4687 115.548ZM98.6247 112.207C97.3507 112.207 96.5967 111.206 96.5967 109.828C96.5967 108.437 97.3507 107.436 98.6247 107.436C99.3917 107.436 100.146 107.904 100.497 108.437V111.193C100.146 111.739 99.3917 112.207 98.6247 112.207ZM105.842 113V104.329H104.893L102.722 106.565L103.372 107.228L104.763 105.746V113H105.842ZM113.51 113V112.038H109.259C111.677 110.127 113.471 108.515 113.471 106.747C113.471 105.018 112.002 104.199 110.559 104.199C109.337 104.199 108.206 104.68 107.543 105.564L108.206 106.253C108.713 105.603 109.519 105.161 110.559 105.161C111.456 105.161 112.379 105.629 112.379 106.747C112.379 108.242 110.676 109.685 107.556 112.129V113H113.51ZM117.955 113.156C119.866 113.156 121.036 112.103 121.036 110.66C121.036 109.256 119.814 108.593 119.034 108.515C119.84 108.385 120.893 107.761 120.893 106.5C120.893 105.044 119.632 104.199 117.968 104.199C116.616 104.199 115.615 104.771 114.991 105.538L115.589 106.214C116.226 105.525 116.928 105.161 117.877 105.161C118.93 105.161 119.814 105.681 119.814 106.643C119.814 107.644 118.891 108.073 117.799 108.073C117.448 108.073 117.045 108.073 116.902 108.06V109.048C117.032 109.035 117.435 109.035 117.799 109.035C119.073 109.035 119.957 109.49 119.957 110.569C119.957 111.557 119.19 112.194 117.929 112.194C116.902 112.194 116.018 111.726 115.511 111.05L114.874 111.726C115.407 112.506 116.486 113.156 117.955 113.156ZM123.228 113.13C123.618 113.13 123.943 112.805 123.943 112.415C123.943 112.025 123.618 111.7 123.228 111.7C122.838 111.7 122.513 112.025 122.513 112.415C122.513 112.805 122.838 113.13 123.228 113.13ZM128.397 113.156C129.541 113.156 130.217 112.688 130.698 112.064L130.048 111.466C129.632 112.025 129.099 112.285 128.449 112.285C127.123 112.285 126.278 111.245 126.278 109.854C126.278 108.463 127.123 107.436 128.449 107.436C129.099 107.436 129.632 107.67 130.048 108.242L130.698 107.657C130.217 107.033 129.541 106.565 128.397 106.565C126.525 106.565 125.264 107.995 125.264 109.854C125.264 111.713 126.525 113.156 128.397 113.156ZM134.821 113.156C136.732 113.156 137.928 111.674 137.928 109.854C137.928 108.034 136.732 106.565 134.821 106.565C132.91 106.565 131.714 108.034 131.714 109.854C131.714 111.674 132.91 113.156 134.821 113.156ZM134.821 112.285C133.482 112.285 132.741 111.141 132.741 109.854C132.741 108.58 133.482 107.436 134.821 107.436C136.16 107.436 136.901 108.58 136.901 109.854C136.901 111.141 136.16 112.285 134.821 112.285ZM148.071 113V108.463C148.071 107.202 147.46 106.565 146.316 106.565C145.406 106.565 144.561 107.163 144.21 107.735C144.028 107.085 143.482 106.565 142.533 106.565C141.597 106.565 140.765 107.228 140.492 107.631V106.721H139.517V113H140.492V108.411C140.83 107.904 141.506 107.436 142.143 107.436C142.975 107.436 143.3 107.943 143.3 108.736V113H144.275V108.398C144.6 107.891 145.289 107.436 145.939 107.436C146.758 107.436 147.096 107.943 147.096 108.736V113H148.071ZM150.536 113.13C150.926 113.13 151.251 112.805 151.251 112.415C151.251 112.025 150.926 111.7 150.536 111.7C150.146 111.7 149.821 112.025 149.821 112.415C149.821 112.805 150.146 113.13 150.536 113.13ZM157.926 113V108.684C157.926 107.163 156.834 106.565 155.495 106.565C154.468 106.565 153.662 106.903 152.986 107.605L153.441 108.281C154 107.67 154.611 107.41 155.365 107.41C156.275 107.41 156.951 107.891 156.951 108.723V109.854C156.444 109.282 155.729 109.009 154.871 109.009C153.805 109.009 152.687 109.659 152.687 111.076C152.687 112.441 153.818 113.156 154.871 113.156C155.716 113.156 156.444 112.857 156.951 112.285V113H157.926ZM155.235 112.454C154.312 112.454 153.675 111.882 153.675 111.076C153.675 110.283 154.312 109.711 155.235 109.711C155.911 109.711 156.574 109.971 156.951 110.478V111.674C156.574 112.194 155.911 112.454 155.235 112.454ZM165.106 113V106.721H164.131V111.336C163.767 111.843 163.039 112.285 162.285 112.285C161.427 112.285 160.868 111.96 160.868 110.855V106.721H159.893V111.154C159.893 112.506 160.582 113.156 161.895 113.156C162.831 113.156 163.65 112.662 164.131 112.116V113H165.106Z" fill="#7050E5"/>
<path d="M33.871 134V126.663H33.068L31.231 128.555L31.781 129.116L32.958 127.862V134H33.871ZM37.8185 134.132C39.2595 134.132 40.4475 133.384 40.4475 132.141C40.4475 131.162 39.6115 130.491 38.6985 130.216C39.5455 129.974 40.3375 129.413 40.3375 128.456C40.3375 127.136 39.0285 126.553 37.8185 126.553C36.5975 126.553 35.3105 127.136 35.3105 128.456C35.3105 129.413 36.0915 129.974 36.9385 130.216C36.0255 130.491 35.1895 131.162 35.1895 132.141C35.1895 133.395 36.3665 134.132 37.8185 134.132ZM37.8185 129.842C37.3785 129.765 36.2345 129.468 36.2345 128.577C36.2345 127.818 36.9275 127.367 37.8185 127.367C38.6985 127.367 39.4135 127.818 39.4135 128.577C39.4135 129.468 38.2695 129.765 37.8185 129.842ZM37.8185 133.318C36.9055 133.318 36.1135 132.834 36.1135 132.042C36.1135 131.085 37.3675 130.678 37.8185 130.623C38.2695 130.678 39.5235 131.085 39.5235 132.042C39.5235 132.834 38.7205 133.318 37.8185 133.318ZM48.8936 134V130.249C48.8936 129.094 48.3106 128.555 47.1996 128.555C46.3966 128.555 45.6706 129.006 45.3076 129.457V126.663H44.4826V134H45.3076V130.117C45.6156 129.688 46.2316 129.292 46.8696 129.292C47.5956 129.292 48.0686 129.556 48.0686 130.502V134H48.8936ZM52.7519 134.132C54.3689 134.132 55.3809 132.878 55.3809 131.338C55.3809 129.798 54.3689 128.555 52.7519 128.555C51.1349 128.555 50.1229 129.798 50.1229 131.338C50.1229 132.878 51.1349 134.132 52.7519 134.132ZM52.7519 133.395C51.6189 133.395 50.9919 132.427 50.9919 131.338C50.9919 130.26 51.6189 129.292 52.7519 129.292C53.8849 129.292 54.5119 130.26 54.5119 131.338C54.5119 132.427 53.8849 133.395 52.7519 133.395ZM61.0268 134V128.687H60.2018V132.592C59.8938 133.021 59.2778 133.395 58.6398 133.395C57.9138 133.395 57.4408 133.12 57.4408 132.185V128.687H56.6158V132.438C56.6158 133.582 57.1988 134.132 58.3098 134.132C59.1018 134.132 59.7948 133.714 60.2018 133.252V134H61.0268ZM63.3894 134V130.238C63.6314 129.809 64.3244 129.391 64.8414 129.391C64.9624 129.391 65.0614 129.402 65.1604 129.413V128.566C64.4344 128.566 63.8184 128.984 63.3894 129.534V128.687H62.5644V134H63.3894ZM67.7793 134.132C69.1433 134.132 69.8583 133.417 69.8583 132.526C69.8583 130.458 66.5693 131.217 66.5693 130.062C66.5693 129.589 67.0203 129.226 67.7463 129.226C68.4393 129.226 69.0113 129.512 69.3303 129.897L69.7153 129.325C69.2973 128.896 68.6593 128.555 67.7463 128.555C66.4813 128.555 65.7773 129.248 65.7773 130.084C65.7773 132.053 69.0663 131.261 69.0663 132.548C69.0663 133.076 68.6153 133.461 67.8013 133.461C67.0753 133.461 66.4043 133.109 66.0523 132.702L65.6343 133.296C66.1733 133.857 66.8993 134.132 67.7793 134.132ZM77.9722 134V130.348C77.9722 129.061 77.0482 128.555 75.9152 128.555C75.0462 128.555 74.3642 128.841 73.7922 129.435L74.1772 130.007C74.6502 129.49 75.1672 129.27 75.8052 129.27C76.5752 129.27 77.1472 129.677 77.1472 130.381V131.338C76.7182 130.854 76.1132 130.623 75.3872 130.623C74.4852 130.623 73.5392 131.173 73.5392 132.372C73.5392 133.527 74.4962 134.132 75.3872 134.132C76.1022 134.132 76.7182 133.879 77.1472 133.395V134H77.9722ZM75.6952 133.538C74.9142 133.538 74.3752 133.054 74.3752 132.372C74.3752 131.701 74.9142 131.217 75.6952 131.217C76.2672 131.217 76.8282 131.437 77.1472 131.866V132.878C76.8282 133.318 76.2672 133.538 75.6952 133.538ZM81.6608 136.156C82.9588 136.156 84.2018 135.606 84.2018 133.923V128.687H83.3768V129.49C82.9478 128.907 82.2988 128.555 81.5838 128.555C80.1868 128.555 79.2188 129.611 79.2188 131.316C79.2188 133.032 80.1978 134.066 81.5838 134.066C82.3318 134.066 82.9808 133.659 83.3768 133.12V133.923C83.3768 135.045 82.5408 135.474 81.6608 135.474C80.9018 135.474 80.3738 135.276 79.9338 134.759L79.5158 135.353C80.1538 135.98 80.7698 136.156 81.6608 136.156ZM81.7928 133.329C80.7148 133.329 80.0768 132.482 80.0768 131.316C80.0768 130.139 80.7148 129.292 81.7928 129.292C82.4418 129.292 83.0798 129.688 83.3768 130.139V132.471C83.0798 132.933 82.4418 133.329 81.7928 133.329ZM88.0649 134.132C89.6819 134.132 90.6939 132.878 90.6939 131.338C90.6939 129.798 89.6819 128.555 88.0649 128.555C86.4479 128.555 85.4359 129.798 85.4359 131.338C85.4359 132.878 86.4479 134.132 88.0649 134.132ZM88.0649 133.395C86.9319 133.395 86.3049 132.427 86.3049 131.338C86.3049 130.26 86.9319 129.292 88.0649 129.292C89.1979 129.292 89.8249 130.26 89.8249 131.338C89.8249 132.427 89.1979 133.395 88.0649 133.395Z" fill="#555555"/>
<rect width="299" height="60" fill="#7050E5"/>
<path d="M82.744 28.54C80.7493 28.54 79.0847 27.88 77.75 26.56C76.43 25.2253 75.77 23.5827 75.77 21.632C75.77 19.3 76.65 17.276 78.41 15.56C80.17 13.8293 82.2013 12.964 84.504 12.964C86.5427 12.964 88.2073 13.624 89.498 14.944C90.7887 16.264 91.434 17.8847 91.434 19.806C91.434 21.478 91.0087 22.7833 90.158 23.722C89.3073 24.6607 88.3613 25.13 87.32 25.13C86.704 25.13 86.2127 24.9687 85.846 24.646C85.494 24.3233 85.2887 23.92 85.23 23.436L85.208 23.304C84.812 23.8467 84.3207 24.2867 83.734 24.624C83.1473 24.9613 82.5387 25.13 81.908 25.13C80.8813 25.13 80.06 24.7927 79.444 24.118C78.828 23.4433 78.52 22.5633 78.52 21.478C78.52 20.0113 79.0333 18.7427 80.06 17.672C81.1013 16.5867 82.2747 16.044 83.58 16.044C84.9 16.044 85.824 16.5647 86.352 17.606L86.616 16.374H88.684L87.496 21.984C87.4667 22.16 87.452 22.3287 87.452 22.49C87.452 22.8273 87.5327 23.0913 87.694 23.282C87.87 23.458 88.09 23.546 88.354 23.546C88.882 23.546 89.3807 23.2307 89.85 22.6C90.3193 21.9693 90.554 21.038 90.554 19.806C90.554 18.0167 89.9893 16.5647 88.86 15.45C87.7453 14.3353 86.264 13.778 84.416 13.778C82.3187 13.778 80.4853 14.5627 78.916 16.132C77.3613 17.7013 76.584 19.52 76.584 21.588C76.584 23.348 77.1707 24.8147 78.344 25.988C79.532 27.1613 81.028 27.748 82.832 27.748C84.2547 27.748 85.604 27.3447 86.88 26.538L87.32 27.154C85.8827 28.078 84.3573 28.54 82.744 28.54ZM82.656 23.48C83.7267 23.48 84.658 22.9227 85.45 21.808L86.044 19.036C85.8973 18.684 85.6553 18.376 85.318 18.112C84.9807 17.8333 84.5553 17.694 84.042 17.694C83.1033 17.694 82.304 18.068 81.644 18.816C80.984 19.5493 80.654 20.3853 80.654 21.324C80.654 21.9693 80.83 22.49 81.182 22.886C81.5487 23.282 82.04 23.48 82.656 23.48ZM97.5325 27.264C95.6258 27.264 94.1078 26.714 92.9785 25.614L94.0345 23.942C94.4305 24.3527 94.9658 24.7047 95.6405 24.998C96.3151 25.2913 96.9825 25.438 97.6425 25.438C98.3171 25.438 98.8305 25.306 99.1825 25.042C99.5491 24.778 99.7325 24.4333 99.7325 24.008C99.7325 23.6267 99.5125 23.3333 99.0725 23.128C98.6325 22.908 98.0971 22.7393 97.4665 22.622C96.8358 22.49 96.2051 22.336 95.5745 22.16C94.9438 21.9693 94.4085 21.6393 93.9685 21.17C93.5285 20.7007 93.3085 20.092 93.3085 19.344C93.3085 18.4347 93.6825 17.672 94.4305 17.056C95.1785 16.4253 96.1978 16.11 97.4885 16.11C99.1165 16.11 100.495 16.6087 101.624 17.606L100.656 19.234C100.319 18.8527 99.8718 18.5447 99.3145 18.31C98.7571 18.0753 98.1558 17.958 97.5105 17.958C96.9091 17.958 96.4251 18.0827 96.0585 18.332C95.7065 18.5667 95.5305 18.8747 95.5305 19.256C95.5305 19.5493 95.6845 19.7913 95.9925 19.982C96.3151 20.158 96.7111 20.29 97.1805 20.378C97.6645 20.466 98.1851 20.5907 98.7425 20.752C99.2998 20.8987 99.8131 21.0747 100.282 21.28C100.766 21.4853 101.162 21.8227 101.47 22.292C101.793 22.7467 101.954 23.304 101.954 23.964C101.954 24.932 101.566 25.724 100.788 26.34C100.011 26.956 98.9258 27.264 97.5325 27.264ZM113.255 27H110.945V25.856C110.124 26.7947 108.98 27.264 107.513 27.264C106.545 27.264 105.687 26.956 104.939 26.34C104.191 25.7093 103.817 24.844 103.817 23.744C103.817 22.6147 104.184 21.7567 104.917 21.17C105.665 20.5833 106.531 20.29 107.513 20.29C109.024 20.29 110.168 20.7447 110.945 21.654V20.07C110.945 19.454 110.718 18.97 110.263 18.618C109.809 18.266 109.207 18.09 108.459 18.09C107.271 18.09 106.223 18.5373 105.313 19.432L104.367 17.826C105.57 16.682 107.059 16.11 108.833 16.11C110.139 16.11 111.202 16.418 112.023 17.034C112.845 17.65 113.255 18.6253 113.255 19.96V27ZM108.415 25.68C109.574 25.68 110.417 25.3133 110.945 24.58V22.974C110.417 22.2407 109.574 21.874 108.415 21.874C107.755 21.874 107.213 22.05 106.787 22.402C106.362 22.754 106.149 23.216 106.149 23.788C106.149 24.36 106.362 24.822 106.787 25.174C107.213 25.5113 107.755 25.68 108.415 25.68ZM118.736 27H116.426V12.326H118.736V27ZM125.099 27.264C124.204 27.264 123.522 27.0293 123.053 26.56C122.598 26.0907 122.371 25.416 122.371 24.536V18.398H120.611V16.374H122.371V13.47H124.681V16.374H126.837V18.398H124.681V23.964C124.681 24.3453 124.769 24.6533 124.945 24.888C125.121 25.108 125.37 25.218 125.693 25.218C126.162 25.218 126.507 25.0933 126.727 24.844L127.277 26.582C126.793 27.0367 126.067 27.264 125.099 27.264ZM133.422 31.312C131.618 31.312 130.137 30.784 128.978 29.728L130.056 28.056C130.848 28.9653 131.97 29.42 133.422 29.42C134.302 29.42 135.043 29.1853 135.644 28.716C136.26 28.2613 136.568 27.5353 136.568 26.538V25.262C135.659 26.4353 134.522 27.022 133.158 27.022C131.765 27.022 130.628 26.538 129.748 25.57C128.883 24.602 128.45 23.2673 128.45 21.566C128.45 19.8793 128.883 18.552 129.748 17.584C130.628 16.6013 131.765 16.11 133.158 16.11C134.552 16.11 135.688 16.6893 136.568 17.848V16.374H138.878V26.45C138.878 27.3593 138.717 28.144 138.394 28.804C138.086 29.4787 137.661 29.9847 137.118 30.322C136.576 30.674 135.996 30.9233 135.38 31.07C134.779 31.2313 134.126 31.312 133.422 31.312ZM133.84 24.976C134.368 24.976 134.889 24.8367 135.402 24.558C135.916 24.2793 136.304 23.942 136.568 23.546V19.586C136.304 19.19 135.916 18.8527 135.402 18.574C134.889 18.2953 134.368 18.156 133.84 18.156C132.931 18.156 132.205 18.4713 131.662 19.102C131.12 19.718 130.848 20.5393 130.848 21.566C130.848 22.5927 131.12 23.4213 131.662 24.052C132.205 24.668 132.931 24.976 133.84 24.976ZM144.358 27H142.048V16.374H144.358V17.936C144.769 17.408 145.282 16.9753 145.898 16.638C146.514 16.3007 147.152 16.132 147.812 16.132V18.42C147.607 18.376 147.365 18.354 147.086 18.354C146.602 18.354 146.081 18.5007 145.524 18.794C144.981 19.0727 144.593 19.3953 144.358 19.762V27ZM154.647 27.264C153.004 27.264 151.684 26.7287 150.687 25.658C149.69 24.5727 149.191 23.2453 149.191 21.676C149.191 20.1067 149.69 18.7867 150.687 17.716C151.684 16.6453 153.004 16.11 154.647 16.11C156.304 16.11 157.632 16.6453 158.629 17.716C159.626 18.7867 160.125 20.1067 160.125 21.676C160.125 23.26 159.626 24.5873 158.629 25.658C157.632 26.7287 156.304 27.264 154.647 27.264ZM154.647 25.218C155.6 25.218 156.348 24.8807 156.891 24.206C157.448 23.5167 157.727 22.6733 157.727 21.676C157.727 20.6933 157.448 19.8647 156.891 19.19C156.348 18.5007 155.6 18.156 154.647 18.156C153.708 18.156 152.96 18.5007 152.403 19.19C151.86 19.8647 151.589 20.6933 151.589 21.676C151.589 22.6733 151.86 23.5167 152.403 24.206C152.96 24.8807 153.708 25.218 154.647 25.218ZM172.12 27H169.81V25.592C168.813 26.7067 167.559 27.264 166.048 27.264C163.775 27.264 162.638 26.142 162.638 23.898V16.374H164.948V23.062C164.948 23.8393 165.132 24.3967 165.498 24.734C165.865 25.0567 166.393 25.218 167.082 25.218C167.64 25.218 168.16 25.086 168.644 24.822C169.128 24.558 169.517 24.228 169.81 23.832V16.374H172.12V27ZM181.017 27.264C179.609 27.264 178.472 26.6847 177.607 25.526V31.048H175.297V16.374H177.607V17.826C178.457 16.682 179.594 16.11 181.017 16.11C182.41 16.11 183.539 16.6087 184.405 17.606C185.285 18.6033 185.725 19.96 185.725 21.676C185.725 23.392 185.285 24.756 184.405 25.768C183.539 26.7653 182.41 27.264 181.017 27.264ZM180.335 25.218C181.244 25.218 181.97 24.888 182.513 24.228C183.055 23.568 183.327 22.7173 183.327 21.676C183.327 20.6347 183.055 19.7913 182.513 19.146C181.97 18.486 181.244 18.156 180.335 18.156C179.807 18.156 179.286 18.2953 178.773 18.574C178.259 18.8527 177.871 19.19 177.607 19.586V23.788C177.871 24.184 178.259 24.5213 178.773 24.8C179.286 25.0787 179.807 25.218 180.335 25.218Z" fill="white"/>
<path d="M79.564 44V35.698H82.532V34.662H75.448V35.698H78.402V44H79.564ZM90.0591 44L92.2151 37.238H91.1091L89.4571 42.628L87.6931 37.238H86.7831L85.0051 42.628L83.3531 37.238H82.2611L84.4171 44H85.4671L87.2311 38.568L88.9951 44H90.0591ZM93.8443 36.272C94.2363 36.272 94.5443 35.964 94.5443 35.572C94.5443 35.18 94.2363 34.858 93.8443 34.858C93.4523 34.858 93.1303 35.18 93.1303 35.572C93.1303 35.964 93.4523 36.272 93.8443 36.272ZM94.3623 44V37.238H93.3123V44H94.3623ZM98.0669 44.168C98.6689 44.168 99.0469 43.986 99.3129 43.734L99.0049 42.936C98.8649 43.09 98.5989 43.23 98.2909 43.23C97.8429 43.23 97.6189 42.866 97.6189 42.362V38.162H98.9909V37.238H97.6189V35.39H96.5549V37.238H95.4349V38.162H96.5549V42.586C96.5549 43.594 97.0589 44.168 98.0669 44.168ZM102.07 44.168C102.672 44.168 103.05 43.986 103.316 43.734L103.008 42.936C102.868 43.09 102.602 43.23 102.294 43.23C101.846 43.23 101.622 42.866 101.622 42.362V38.162H102.994V37.238H101.622V35.39H100.558V37.238H99.4381V38.162H100.558V42.586C100.558 43.594 101.062 44.168 102.07 44.168ZM107.417 44.168C108.509 44.168 109.419 43.79 110.105 43.118L109.601 42.432C109.055 42.992 108.285 43.3 107.501 43.3C106.045 43.3 105.163 42.236 105.079 40.962H110.539V40.696C110.539 38.666 109.335 37.07 107.291 37.07C105.359 37.07 103.959 38.652 103.959 40.612C103.959 42.726 105.401 44.168 107.417 44.168ZM109.503 40.178H105.065C105.121 39.156 105.835 37.938 107.277 37.938C108.817 37.938 109.489 39.184 109.503 40.178ZM113.178 44V39.212C113.486 38.666 114.368 38.134 115.026 38.134C115.18 38.134 115.306 38.148 115.432 38.162V37.084C114.508 37.084 113.724 37.616 113.178 38.316V37.238H112.128V44H113.178ZM121.492 44V38.162H122.864V37.238H121.492V36.72C121.492 35.852 121.87 35.39 122.57 35.39C122.906 35.39 123.172 35.516 123.396 35.712L123.83 35.04C123.41 34.648 122.948 34.522 122.402 34.522C121.212 34.522 120.442 35.334 120.442 36.72V37.238H119.322V38.162H120.442V44H121.492ZM127.081 44.168C128.173 44.168 129.083 43.79 129.769 43.118L129.265 42.432C128.719 42.992 127.949 43.3 127.165 43.3C125.709 43.3 124.827 42.236 124.743 40.962H130.203V40.696C130.203 38.666 128.999 37.07 126.955 37.07C125.023 37.07 123.623 38.652 123.623 40.612C123.623 42.726 125.065 44.168 127.081 44.168ZM129.167 40.178H124.729C124.785 39.156 125.499 37.938 126.941 37.938C128.481 37.938 129.153 39.184 129.167 40.178ZM134.857 44.168C135.949 44.168 136.859 43.79 137.545 43.118L137.041 42.432C136.495 42.992 135.725 43.3 134.941 43.3C133.485 43.3 132.603 42.236 132.519 40.962H137.979V40.696C137.979 38.666 136.775 37.07 134.731 37.07C132.799 37.07 131.399 38.652 131.399 40.612C131.399 42.726 132.841 44.168 134.857 44.168ZM136.943 40.178H132.505C132.561 39.156 133.275 37.938 134.717 37.938C136.257 37.938 136.929 39.184 136.943 40.178ZM145.518 44V34.662H144.468V38.26C143.922 37.518 143.096 37.07 142.186 37.07C140.422 37.07 139.176 38.456 139.176 40.626C139.176 42.824 140.422 44.168 142.186 44.168C143.138 44.168 143.964 43.678 144.468 42.992V44H145.518ZM142.452 43.23C141.08 43.23 140.268 42.124 140.268 40.626C140.268 39.128 141.08 38.008 142.452 38.008C143.278 38.008 144.104 38.512 144.468 39.1V42.152C144.104 42.74 143.278 43.23 142.452 43.23Z" fill="white"/>
<rect width="59" height="60" fill="#5634D1"/>
<path fill-rule="evenodd" clip-rule="evenodd" d="M29.5 49C40.2696 49 49 40.2696 49 29.5C49 18.7304 40.2696 10 29.5 10C18.7304 10 10 18.7304 10 29.5C10 40.2696 18.7304 49 29.5 49ZM47.5 29.5C47.5 39.4411 39.4411 47.5 29.5 47.5C19.5589 47.5 11.5 39.4411 11.5 29.5C11.5 19.5589 19.5589 11.5 29.5 11.5C39.4411 11.5 47.5 19.5589 47.5 29.5ZM36.7246 27.4681C36.7246 27.3178 36.7246 27.1689 36.7143 27.02C37.3916 26.5293 37.977 25.9219 38.4417 25.2247C37.8104 25.5053 37.14 25.6893 36.4538 25.7702C37.1763 25.3372 37.7172 24.6557 37.9756 23.8535C37.2956 24.257 36.5525 24.5418 35.7773 24.6949C34.4666 23.2997 32.2738 23.2324 30.8795 24.5446C29.9801 25.3907 29.599 26.6521 29.878 27.8558C27.0942 27.7165 24.5011 26.4002 22.7435 24.2351C21.8249 25.819 22.2938 27.8449 23.8149 28.8626C23.2638 28.8461 22.725 28.6972 22.2438 28.4289V28.4728C22.2438 30.1226 23.4056 31.5432 25.0206 31.8699C24.5113 32.0092 23.9767 32.0298 23.4577 31.9296C23.9115 33.3412 25.2105 34.3082 26.6919 34.3363C25.4655 35.3005 23.9513 35.8242 22.3925 35.8228C22.1169 35.8221 21.8421 35.8056 21.5686 35.7727C23.152 36.7898 24.9939 37.3292 26.8749 37.3264V37.3292C33.2423 37.3292 36.7246 32.0476 36.7246 27.4681Z" fill="white"/>
</svg>
